<svg xmlns="http://www.w3.org/2000/svg" version="1.1"
    xmlns:xlink="http://www.w3.org/1999/xlink" width="512" height="512" x="0" y="0" viewBox="0 0 682.667 682.667" style="enable-background:new 0 0 512 512" xml:space="preserve" class="">
    <g>
        <defs>
            <clipPath id="a" clipPathUnits="userSpaceOnUse">
                <path d="M0 512h512V0H0Z" fill="#000000" opacity="1" data-original="#000000"></path>
            </clipPath>
        </defs>
        <g clip-path="url(#a)" transform="matrix(1.33333 0 0 -1.33333 0 682.667)">
            <path d="M0 0c0-141.385-114.615-256-256-256S-512-141.385-512 0s114.615 256 256 256S0 141.385 0 0" style="fill-opacity:1;fill-rule:nonzero;stroke:none" transform="translate(512 256)" fill="#ffcf11" data-original="#ffcf11" class=""></path>
            <path d="M0 0c0-96.65-78.35-175-175-175S-350-96.65-350 0s78.35 175 175 175S0 96.65 0 0" style="fill-opacity:1;fill-rule:nonzero;stroke:none" transform="translate(431 256)" fill="#ffe854" data-original="#ffe854" class=""></path>
            <path d="m0 0-65.264 21.201L-130.527 0S-328.93.564-290.701-79.504h450.875C198.403.564 0 0 0 0" style="fill-opacity:1;fill-rule:nonzero;stroke:none" transform="translate(321.264 100.77)" fill="#0c99e6" data-original="#0c99e6"></path>
            <path d="M0 0c-6.154-12.65-51.236-24.381-138.16-18.021-86.924 6.36-166.781 24.735-166.781 24.735v14.298S-142.4 37.808-81.271 36.748C-20.141 35.688 6.36 13.074 0 0" style="fill-opacity:1;fill-rule:nonzero;stroke:none" transform="translate(481.437 21.266)" fill="#ffaea1" data-original="#ffaea1" class=""></path>
            <path d="M0 0c.023.392.034.802.039 1.223-1.29.043-2.574.089-3.896.112-61.129 1.06-223.67-15.737-223.67-15.737V-28.7s46.109-10.608 106.388-18.493c6.405 1.394 12.772 2.8 19.059 4.211 25.091 5.63 46.387 10.783 61.586 14.901 8.504 2.303 14.935 4.231 19.662 5.894C-14.866-20.088-.893-15.172 0 0" style="fill-opacity:1;fill-rule:nonzero;stroke:none" transform="translate(404.023 56.68)" fill="#f4958c" data-original="#f4958c"></path>
            <path d="M0 0c6.782-12.33 34.275-30.035 118.372-16.254C202.469-2.473 351.943 30.653 352.296 36.66c.354 6.007-13.787 17.403-32.161 17.403-18.374 0-21.201-5.344-31.802-5.344-10.6 0-24.027 16.651-35.335 14.354-11.307-2.297-18.02-25.265-18.02-25.265s-107.065 7.067-163.955 3.534C14.134 37.808-7.774 14.134 0 0" style="fill-opacity:1;fill-rule:nonzero;stroke:none" transform="translate(30.563 21.266)" fill="#ffcfc2" data-original="#ffcfc2"></path>
            <path d="M0 0c-7.774 14.134 14.134 37.808 71.023 41.342 5.903.367 12.352.618 19.16.776-22.214.392-44.219.301-61.562-.776C-28.268 37.808-50.176 14.134-42.402 0c5.844-10.626 27.076-25.241 86.657-20.258C16.15-17.17 4.165-7.573 0 0" style="fill-opacity:1;fill-rule:nonzero;stroke:none" transform="translate(72.965 21.266)" fill="#ffaea1" data-original="#ffaea1" class=""></path>
            <path d="M0 0v16.431c0 3.357 4.947 3.71 6.36 0 1.414-3.71.995-16.799 3.06-20.414v-6.087z" style="fill-opacity:1;fill-rule:nonzero;stroke:none" transform="translate(20.563 94.41)" fill="#f4958c" data-original="#f4958c"></path>
            <path d="M0 0v16.431c0 3.357-4.947 3.71-6.36 0-1.414-3.71-.995-16.799-3.06-20.414v-6.087z" style="fill-opacity:1;fill-rule:nonzero;stroke:none" transform="translate(491.437 94.41)" fill="#f4958c" data-original="#f4958c"></path>
            <path d="M0 0c-.795 2.253-4.24 1.325-6.89-1.59-1.852-2.037-8.879-8.472-13.442-12.572a5.992 5.992 0 0 0-7.876-.117c-3.195 2.699-2.724 7.761.922 9.807 5.191 2.913 11.271 6.882 12.445 10.037 2.12 5.698-3.047 6.361-5.83 4.373C-23.454 7.95-58.524-1.723-58.524-1.723l-58.196 78.444s-3.534 113.072-17.668 124.733c-14.134 11.66-87.489 24.027-87.489 24.027v25.442h-46.643v-25.442s-73.355-12.367-87.489-24.027c-14.134-11.661-17.668-124.733-17.668-124.733l-58.196-78.444s-35.07 9.673-37.853 11.661c-2.783 1.988-7.95 1.325-5.83-4.373 1.174-3.155 7.253-7.124 12.445-10.037 3.646-2.046 4.117-7.108.922-9.807a5.992 5.992 0 0 0-7.876.117c-4.563 4.1-11.59 10.535-13.442 12.572-2.65 2.915-6.095 3.843-6.89 1.59-.795-2.253 10.998-19.213 13.781-23.056 2.782-3.843 14.973-11.793 22.526-10.336 7.553 1.458 33.877 15.769 33.877 15.769s75.617 56.889 82.684 77.03c7.067 20.141 12.721 88.09 12.721 88.09h159.219s5.654-67.949 12.721-88.09c7.067-20.141 82.684-77.03 82.684-77.03s26.324-14.311 33.877-15.769c7.553-1.457 19.744 6.493 22.526 10.336C-10.998-19.213.795-2.253 0 0" style="fill-opacity:1;fill-rule:nonzero;stroke:none" transform="translate(501.199 103.552)" fill="#ffaea1" data-original="#ffaea1" class=""></path>
            <path d="M0 0s35.688-2.827 39.222 25.441H0Z" style="fill-opacity:1;fill-rule:nonzero;stroke:none" transform="translate(232.679 329.034)" fill="#f4958c" data-original="#f4958c"></path>
            <path d="M0 0s2.475 18.462-6.415 28.77c-1.332 1.544-3.862.493-3.7-1.539l.105-1.307s-5.102 9.954-18.233 13.862c-1.823.543-3.356-1.462-2.386-3.099l.599-1.01s-7.916 7.915-34.148 8.462c-1.927.04-2.881-2.327-1.474-3.643l1.503-1.405c-.001 0-9.878-1.742-22.964-9.665-1.615-.977-1.213-3.429.628-3.85l1.071-.245c-5.065-5.824-7.865-11.889-9.292-15.797-.621-1.699 1.042-3.336 2.731-2.689 0 0-4.02-18.652.849-34.745l46.465-10.496L1.805-27.9S4.62-14.374 0 0" style="fill-opacity:1;fill-rule:nonzero;stroke:none" transform="translate(300.66 435.322)" fill="#8c4f5c" data-original="#8c4f5c"></path>
            <path d="M0 0c-13.69 2.936-23.43 8.31-28.308 5.914 0 0-4.02-18.651.849-34.745l28.681-6.478z" style="fill-opacity:1;fill-rule:nonzero;stroke:none" transform="translate(236.994 436.253)" fill="#7b3c47" data-original="#7b3c47"></path>
            <path d="M0 0s4.567 11.12 12.708 8.538c8.142-2.581-.196-26.678-16.084-28.196Z" style="fill-opacity:1;fill-rule:nonzero;stroke:none" transform="translate(291.459 398.532)" fill="#ffaea1" data-original="#ffaea1" class=""></path>
            <path d="M0 0s-4.567 11.12-12.708 8.538c-8.142-2.581.196-26.678 16.084-28.196Z" style="fill-opacity:1;fill-rule:nonzero;stroke:none" transform="translate(220.541 398.532)" fill="#f4958c" data-original="#f4958c"></path>
            <path d="M0 0c-.465 1.134-.841 2.758-1.197 4.634l-35.4 10.267-35.401-10.267c-.356-1.876-.732-3.5-1.197-4.634-2.092-5.102-4.72-6.141-5.07-6.26a76.8 76.8 0 0 1-.041-2.41c0-30.713 18.674-66.733 41.709-66.733 23.035 0 41.708 36.02 41.708 66.733a76.8 76.8 0 0 1-.041 2.41C4.72-6.141 2.092-5.102 0 0" style="fill-opacity:1;fill-rule:nonzero;stroke:none" transform="translate(292.597 412.564)" fill="#ffcfc2" data-original="#ffcfc2"></path>
            <path d="M0 0c0 5.723.656 11.139 1.862 16.174l-9.897-2.87c-.356-1.876-.731-3.5-1.197-4.634-2.092-5.102-4.72-6.142-5.069-6.26-.026-.798-.042-1.6-.042-2.41 0-30.713 18.674-66.734 41.709-66.734 2.445 0 4.841.41 7.171 1.173C14.92-59.141 0-27.453 0 0" style="fill-opacity:1;fill-rule:nonzero;stroke:none" transform="translate(228.634 403.895)" fill="#ffaea1" data-original="#ffaea1" class=""></path>
            <path d="M0 0c-14.579 0-20.414 4.622-25.459 4.634h-.005a7.246 7.246 0 0 1-2.77-.527C-32.956 2.213-34.037-8.72-35.4-15.899h70.8C34.036-8.72 32.956 2.213 28.234 4.107a7.246 7.246 0 0 1-2.77.527h-.005C20.414 4.622 14.58 0 0 0" style="fill-opacity:1;fill-rule:nonzero;stroke:none" transform="translate(256 433.098)" fill="#ffffff" data-original="#ffffff"></path>
            <path d="M0 0a7.95 7.95 0 0 0 7.95 7.95c-14.58 0-20.415 4.622-25.459 4.634h-.006a7.246 7.246 0 0 1-2.769-.528C-25.006 10.163-26.087-.77-27.451-7.95H7.95A7.95 7.95 0 0 0 0 0" style="fill-opacity:1;fill-rule:nonzero;stroke:none" transform="translate(248.05 425.148)" fill="#ebf0f3" data-original="#ebf0f3"></path>
            <path d="m0 0-12.338-42.174a49.976 49.976 0 0 1-2.012-14.04v-94.066h-130.52v94.066c0 4.752-.677 9.479-2.012 14.04L-159.22 0c6.46 0 11.69 5.23 11.69 11.69v57.22c10.07 2.4 20.12 4.48 28.12 6.04v-27.2c0-21.981 17.819-39.8 39.8-39.8 21.981 0 39.8 17.819 39.8 39.8v27.2c8-1.56 18.05-3.64 28.12-6.04V11.69C-11.69 5.23-6.46 0 0 0" style="fill-opacity:1;fill-rule:nonzero;stroke:none" transform="translate(335.61 251.05)" fill="#3e4a68" data-original="#3e4a68" class=""></path>
            <path d="M0 0c-37.432 0-48.754 5.521-55.547 14.878L-78.178 46.05-65.84 3.876a49.974 49.974 0 0 0 2.012-14.039v-94.067h21.26v90.701a32.4 32.4 0 0 1-1.06 8.15C-12.008-4.579 0 0 0 0" style="fill-opacity:1;fill-rule:nonzero;stroke:none" transform="translate(254.568 205)" fill="#303a59" data-original="#303a59"></path>
        </g>
    </g>
</svg>