<?xml version="1.0" encoding="UTF-8"?>
<svg id="Layer_1" xmlns="http://www.w3.org/2000/svg" viewBox="0 0 1080 1080">
    <defs>
        <style>.cls-1{fill:#fff;}</style>
    </defs>
    <path class="cls-1"
        d="M199.96,332.9h542.67c18.69,0,33.89-15.2,33.89-33.89s-15.21-33.89-33.89-33.89H199.96c-18.69,0-33.89,15.2-33.89,33.89s15.2,33.89,33.89,33.89Z" />
    <path class="cls-1"
        d="M199.96,463.1h542.67c18.69,0,33.89-15.2,33.89-33.89s-15.21-33.89-33.89-33.89H199.96c-18.69,0-33.89,15.2-33.89,33.89s15.2,33.89,33.89,33.89Z" />
    <path class="cls-1"
        d="M199.96,593.31h542.67c18.69,0,33.89-15.2,33.89-33.89s-15.21-33.89-33.89-33.89H199.96c-18.69,0-33.89,15.2-33.89,33.89s15.2,33.89,33.89,33.89Z" />
    <path class="cls-1"
        d="M196.38,723.74h357.08c16.72,0,30.32-15.2,30.32-33.89s-13.6-33.89-30.32-33.89H196.38c-16.72,0-30.32,15.2-30.32,33.89s13.6,33.89,30.32,33.89Z" />
    <path class="cls-1"
        d="M196.38,853.95h312.99c16.72,0,30.32-15.2,30.32-33.89s-13.6-33.89-30.32-33.89H196.38c-16.72,0-30.32,15.2-30.32,33.89s13.6,33.89,30.32,33.89Z" />
    <path class="cls-1"
        d="M873.23,639.36c.12-1.22.19-2.45.19-3.69V111.84c0-53.4-43.44-96.85-96.84-96.85H229.02c-9.69,0-19.1,3.86-25.8,10.56l-124.39,124.16c-.32.31-.62.64-.92.97-6.24,6.93-9.67,15.76-9.67,24.86v707.52c0,53.4,43.44,96.84,96.85,96.84h440.36c3.6,0,7.07-.53,10.35-1.5,40.39,52.61,103.89,86.6,175.19,86.6h0c121.73,0,220.77-99.04,220.77-220.77,0-92.68-57.41-172.19-138.53-204.87ZM229.09,175.15h-72.39l72.39-72.25v72.25ZM141.02,219.94h110.23c12.01,0,22.16-9.75,22.62-21.74,0-.14,0-.28,0-.42v-109.77h502.7c13.27,0,24.06,10.79,24.06,24.06v511.62c-3.2-.14-6.41-.22-9.64-.22-121.73,0-220.77,99.04-220.77,220.77,0,21.93,3.23,43.11,9.21,63.12H165.08c-13.27,0-24.06-10.79-24.06-24.06V219.94ZM790.99,696.02c81.73,0,148.22,66.49,148.22,148.22s-66.49,148.22-148.22,148.22-148.22-66.49-148.22-148.22,66.49-148.22,148.22-148.22Z" />
    <path class="cls-1"
        d="M769.63,865.41v80.9c0,11.79,9.59,21.37,21.37,21.37s21.37-9.59,21.37-21.37v-80.9h80.49c11.68,0,21.15-9.21,21.57-20.97,0-.14,0-.27,0-.41,0-11.79-9.59-21.37-21.37-21.37h-80.69v-80.49c0-11.79-9.59-21.37-21.37-21.37s-21.37,9.59-21.37,21.37v80.49h-80.49c-11.79,0-21.37,9.59-21.37,21.37s9.59,21.37,21.37,21.37h80.49Z" />
</svg>