<?xml version="1.0" encoding="UTF-8"?><svg id="Layer_1" xmlns="http://www.w3.org/2000/svg" viewBox="0 0 1080 1080"><defs><style>.cls-1{fill:#fff;}</style></defs><g id="team"><path class="cls-1" d="M540,593.69c57.43,0,110.62-18,154.26-48.66,29.12,29.84,69.33,48.66,114.31,48.66,89.01,0,161.14-72.17,161.14-161.12s-73.71-163.87-166.5-161c-24.8-122.67-133.17-215-263.22-215s-238.4,92.33-263.22,215c-94.29-2.33-166.5,72.03-166.5,161s72.18,161.12,161.15,161.12c44.98,0,85.19-18.84,114.35-48.66,43.62,30.65,96.81,48.66,154.22,48.66h0ZM808.57,325.14c59.21,0,107.43,48.2,107.43,107.43s-48.21,107.43-107.43,107.43c-28.71,0-54.66-11.38-73.9-29.82,45.8-48.17,73.9-113.32,73.9-185.04h0ZM540,110.26c118.47,0,214.86,96.38,214.86,214.88s-96.39,214.86-214.86,214.86-214.86-96.37-214.86-214.86,96.39-214.88,214.86-214.88h0ZM271.43,540c-59.21,0-107.43-48.22-107.43-107.43s48.21-107.43,107.43-107.43c0,71.62,28.03,136.68,73.71,184.82-19.22,18.45-45.01,30.04-73.71,30.04ZM1077.14,862.29c0-148.35-120.23-268.59-268.57-268.59-40.37,0-78.39,9.37-112.65,25.51-45.66-16.53-103.19-25.51-155.92-25.51-55.62,0-101.11,10.02-150.07,28.33-35.75-17.88-75.83-28.33-118.51-28.33C123.08,593.69,2.86,713.93,2.86,862.29h138.54c-20.06,49.51-31.12,103.82-31.12,161.15h859.43c0-57.32-10.18-111.64-28.91-161.15h136.34ZM63.39,808.57c23.86-92.58,108.1-161.14,208.04-161.14,17.69,0,34.75,2.36,51.09,6.58-64.16,37.45-117.58,90.62-154.79,154.56H63.39ZM167.73,969.72c25.85-184.54,183.49-322.29,379.97-322.29s340.88,135.23,364.9,322.29H167.73ZM765.39,652.02c13.93-3,28.35-4.59,43.18-4.59,99.94,0,184.16,68.56,208.04,161.14h-100.46c-35.58-65.09-87.39-119-150.75-156.55Z"/></g></svg>