<?xml version="1.0" encoding="UTF-8"?>
<svg id="Layer_1" xmlns="http://www.w3.org/2000/svg" viewBox="0 0 1080 1080">
    <defs>
        <style>.cls-1{fill:#000;}</style>
    </defs>
    <path class="cls-1"
        d="M552.55,183.26c46.47,0,84.29-37.84,84.29-84.35s-37.81-84.35-84.29-84.35-84.28,37.84-84.28,84.35,37.81,84.35,84.28,84.35ZM552.55,62.55c20.01,0,36.29,16.31,36.29,36.35s-16.28,36.35-36.29,36.35-36.28-16.31-36.28-36.35,16.28-36.35,36.28-36.35Z" />
    <path class="cls-1"
        d="M552.55,190.21c-65.87,0-119.45,53.58-119.45,119.45v8.05c0,13.25,10.75,24,24,24h190.9c13.25,0,24-10.75,24-24v-8.05c0-65.87-53.59-119.45-119.45-119.45ZM482.9,293.71c7.27-31.75,35.74-55.5,69.66-55.5s62.39,23.76,69.66,55.5h-139.31Z" />
    <path class="cls-1"
        d="M381.66,14.55H101.08c-13.25,0-24,10.75-24,24v279.16c0,13.25,10.75,24,24,24h280.58c13.25,0,24-10.75,24-24V38.55c0-13.25-10.75-24-24-24ZM357.66,293.71H125.08V62.55h232.58v231.16Z" />
    <path class="cls-1"
        d="M735.27,271.92h164.99c13.25,0,24-10.75,24-24s-10.75-24-24-24h-164.99c-13.25,0-24,10.75-24,24s10.75,24,24,24Z" />
    <path class="cls-1"
        d="M735.27,341.71h243.65c13.25,0,24-10.75,24-24s-10.75-24-24-24h-243.65c-13.25,0-24,10.75-24,24s10.75,24,24,24Z" />
    <path class="cls-1"
        d="M636.84,460.77c0-46.51-37.81-84.35-84.29-84.35s-84.28,37.84-84.28,84.35,37.81,84.35,84.28,84.35,84.29-37.84,84.29-84.35ZM516.27,460.77c0-20.04,16.28-36.35,36.28-36.35s36.29,16.31,36.29,36.35-16.28,36.35-36.29,36.35-36.28-16.31-36.28-36.35Z" />
    <path class="cls-1"
        d="M552.55,552.08c-65.87,0-119.45,53.58-119.45,119.45v8.05c0,13.25,10.75,24,24,24h190.9c13.25,0,24-10.75,24-24v-8.05c0-65.87-53.59-119.45-119.45-119.45ZM482.9,655.58c7.27-31.75,35.74-55.5,69.66-55.5s62.39,23.75,69.66,55.5h-139.31Z" />
    <path class="cls-1"
        d="M381.66,376.42H101.08c-13.25,0-24,10.75-24,24v279.16c0,13.25,10.75,24,24,24h280.58c13.25,0,24-10.75,24-24v-279.16c0-13.25-10.75-24-24-24ZM357.66,655.58H125.08v-231.16h232.58v231.16Z" />
    <path class="cls-1"
        d="M735.27,633.79h164.99c13.25,0,24-10.75,24-24s-10.75-24-24-24h-164.99c-13.25,0-24,10.75-24,24s10.75,24,24,24Z" />
    <path class="cls-1"
        d="M978.92,655.58h-243.65c-13.25,0-24,10.75-24,24s10.75,24,24,24h243.65c13.25,0,24-10.75,24-24s-10.75-24-24-24Z" />
    <path class="cls-1"
        d="M636.84,822.64c0-46.51-37.81-84.35-84.29-84.35s-84.28,37.84-84.28,84.35,37.81,84.35,84.28,84.35,84.29-37.84,84.29-84.35ZM516.27,822.64c0-20.04,16.28-36.35,36.28-36.35s36.29,16.31,36.29,36.35-16.28,36.35-36.29,36.35-36.28-16.31-36.28-36.35Z" />
    <path class="cls-1"
        d="M552.55,913.95c-65.87,0-119.45,53.58-119.45,119.45v8.05c0,13.25,10.75,24,24,24h190.9c13.25,0,24-10.75,24-24v-8.05c0-65.87-53.59-119.45-119.45-119.45ZM482.9,1017.45c7.27-31.75,35.74-55.5,69.66-55.5s62.39,23.75,69.66,55.5h-139.31Z" />
    <path class="cls-1"
        d="M381.66,738.29H101.08c-13.25,0-24,10.75-24,24v279.16c0,13.25,10.75,24,24,24h280.58c13.25,0,24-10.75,24-24v-279.16c0-13.25-10.75-24-24-24ZM357.66,1017.45H125.08v-231.16h232.58v231.16Z" />
    <path class="cls-1"
        d="M735.27,995.66h164.99c13.25,0,24-10.75,24-24s-10.75-24-24-24h-164.99c-13.25,0-24,10.75-24,24s10.75,24,24,24Z" />
    <path class="cls-1"
        d="M978.92,1017.45h-243.65c-13.25,0-24,10.75-24,24s10.75,24,24,24h243.65c13.25,0,24-10.75,24-24s-10.75-24-24-24Z" />
    <path class="cls-1"
        d="M210.72,594.79c4.48,4.29,10.43,6.66,16.59,6.66.53,0,1.07-.02,1.61-.05,6.72-.45,12.95-3.71,17.15-8.97l62.47-78.24c8.27-10.36,6.58-25.46-3.78-33.73-10.36-8.27-25.46-6.58-33.73,3.78l-46.1,57.73-15.39-14.72c-9.58-9.16-24.77-8.83-33.93.75-9.16,9.58-8.82,24.77.75,33.93l34.36,32.86Z" />
</svg>