<?xml version="1.0" encoding="UTF-8"?>
<svg id="Layer_1" xmlns="http://www.w3.org/2000/svg" viewBox="0 0 1080 1080">
    <defs>
        <style>.cls-1{fill:#000;}</style>
    </defs>
    <path class="cls-1"
        d="M431.54,221.31c-20.2,0-36.64,16.43-36.64,36.64s16.43,36.64,36.64,36.64h260.35c20.2,0,36.64-16.43,36.64-36.64s-16.43-36.64-36.64-36.64h-260.35Z" />
    <path class="cls-1"
        d="M474.93,1002.33H214.58c-75.51,0-136.93-61.43-136.93-136.93V214.56c0-75.53,61.43-136.98,136.93-136.98h477.32c75.51,0,136.93,61.43,136.93,136.93v130.18c0,20.2,16.44,36.64,36.64,36.64s36.64-16.43,36.64-36.64v-130.18c0-115.88-94.3-210.16-210.21-210.16H214.58C98.67,4.35,4.37,98.67,4.37,214.6v650.84c0,115.91,94.3,210.21,210.21,210.21h260.35c20.2,0,36.64-16.43,36.64-36.64v-.04c0-20.2-16.43-36.64-36.64-36.64Z" />
    <path class="cls-1"
        d="M301.36,655.24h-86.78c-20.2,0-36.64,16.44-36.64,36.64s16.43,36.64,36.64,36.64h86.78c20.2,0,36.64-16.43,36.64-36.64s-16.43-36.64-36.64-36.64Z" />
    <path class="cls-1"
        d="M301.36,438.28h-86.78c-20.2,0-36.64,16.43-36.64,36.64s16.43,36.64,36.64,36.64h86.78c20.2,0,36.64-16.43,36.64-36.64s-16.43-36.64-36.64-36.64Z" />
    <path class="cls-1"
        d="M1064.91,1013.13l-138.98-138.98c40.66-52.16,62.91-116.36,62.91-182.28,0-163.76-133.23-296.99-296.99-296.99s-296.99,133.23-296.99,296.99,133.23,296.99,296.99,296.99c66.01,0,130.21-22.24,182.29-62.9l139.03,139.03c6.94,6.87,16.13,10.66,25.87,10.66s19.02-3.8,25.92-10.71c.3-.3.59-.61.86-.93,13.38-14.34,13.08-36.9-.9-50.87ZM915.61,691.87c0,123.36-100.36,223.72-223.72,223.72s-223.72-100.36-223.72-223.72,100.36-223.72,223.72-223.72,223.72,100.36,223.72,223.72Z" />
    <path class="cls-1"
        d="M797.16,620.87c-.33.27-.66.56-.97.86l-117.49,113.66c-8.92,8.73-23.34,8.81-32.12.21l-59.13-58.35c-6.9-6.83-16.04-10.58-25.75-10.58-.07,0-.15,0-.22,0-9.79.06-18.96,3.91-25.86,10.89-6.89,7-10.64,16.25-10.55,26.07.09,9.78,3.98,18.93,10.91,25.72l59.24,58.5c18,17.61,41.93,27.3,67.38,27.3s49.39-9.72,67.33-27.38l117.25-113.39c7.01-6.8,10.97-15.93,11.14-25.7.17-9.8-3.48-19.07-10.27-26.07-13.68-14.18-36.26-14.86-50.89-1.74Z" />
    <path class="cls-1"
        d="M301.36,221.31h-86.78c-20.2,0-36.64,16.43-36.64,36.64s16.43,36.64,36.64,36.64h86.78c20.2,0,36.64-16.43,36.64-36.64s-16.43-36.64-36.64-36.64Z" />
</svg>