<?xml version="1.0" encoding="UTF-8"?>
<svg id="Layer_1" xmlns="http://www.w3.org/2000/svg" viewBox="0 0 1080 1080">
    <defs>
        <style>.cls-1{fill:#000;}</style>
    </defs>
    <path class="cls-1"
        d="M210.94,681.89h126.56c23.3,0,42.19-18.89,42.19-42.19s-18.89-42.19-42.19-42.19h-126.56c-23.3,0-42.19,18.89-42.19,42.19s18.89,42.19,42.19,42.19Z" />
    <path class="cls-1"
        d="M210.94,513.14h126.56c23.3,0,42.19-18.89,42.19-42.19s-18.89-42.19-42.19-42.19h-126.56c-23.3,0-42.19,18.89-42.19,42.19s18.89,42.19,42.19,42.19Z" />
    <path class="cls-1"
        d="M458.67,639.7c0,23.3,18.89,42.19,42.19,42.19,88.22,0,171.15-34.35,233.53-96.73l308.52-308.55c49.46-49.46,49.47-129.52,0-178.99-49.34-49.35-129.64-49.35-178.99,0l-308.52,308.55c-62.38,62.38-96.73,145.32-96.73,233.53h0ZM923.58,157.29c16.44-16.45,43.21-16.45,59.66,0,16.49,16.48,16.49,43.17,0,59.66l-308.52,308.55c-35.27,35.27-79.36,58.5-127.31,67.64,9.14-47.94,32.38-92.04,67.64-127.31l308.52-308.55Z" />
    <path class="cls-1"
        d="M126.56,1019.39c31.17,0,61.13-11.44,84.36-32.21l58.32-52.16h431.07c116.31,0,210.94-94.63,210.94-210.94v-94.63c0-23.3-18.89-42.19-42.19-42.19s-42.19,18.89-42.19,42.19v94.63c0,69.79-56.78,126.56-126.56,126.56H253.13c-10.38,0-20.39,3.82-28.13,10.74l-70.32,62.9c-7.74,6.92-17.72,10.73-28.11,10.73-23.26,0-42.19-18.93-42.19-42.19v-506.25c0-69.79,56.78-126.56,126.56-126.56h353.85c23.3,0,42.19-18.89,42.19-42.19s-18.89-42.19-42.19-42.19H210.94C94.62,175.64,0,270.26,0,386.57v506.25C0,962.61,56.78,1019.39,126.56,1019.39Z" />
</svg>