<?xml version="1.0" encoding="UTF-8"?><svg id="Layer_1" xmlns="http://www.w3.org/2000/svg" viewBox="0 0 1080 1080"><defs><style>.cls-1{fill:#fff;}</style></defs><path class="cls-1" d="M963.79,562.52V176.49c0-52.33-42.57-94.9-94.9-94.9h-26.27v-8.96c0-33.24-27.04-60.28-60.28-60.28s-60.28,27.04-60.28,60.28v8.96H254.08v-8.96c0-33.24-27.04-60.28-60.28-60.28s-60.28,27.04-60.28,60.28v8.96h-26.27c-52.33,0-94.9,42.57-94.9,94.9v657.78c0,52.33,42.57,94.9,94.9,94.9h430.85c24.57,40.72,59.03,74.9,99.9,99.07,43.62,25.78,93.53,39.41,144.34,39.41,157.32,0,285.31-127.99,285.31-285.31,0-85.36-37.8-165.24-103.86-219.82ZM782.34,548.35c129.02,0,233.99,104.97,233.99,233.99s-104.97,233.99-233.99,233.99-233.99-104.97-233.99-233.99,104.97-233.99,233.99-233.99ZM418.83,773.99c-4.94,0-8.96-4.02-8.96-8.96v-103.86c0-4.94,4.02-8.96,8.96-8.96h109.93c-19.52,37.85-30.35,79.53-31.61,121.78h-78.32ZM686.83,505.38v-103.86c0-4.94,4.02-8.96,8.96-8.96h138.48c4.94,0,8.96,4.02,8.96,8.96v102.38c-20.61-4.56-41.06-6.87-60.89-6.87-30.81,0-61.61,5.19-91.6,15.42-2.4-1.6-3.91-4.22-3.91-7.06ZM912.47,528.77c-6.47-3.32-13.09-6.42-19.84-9.26,1.29-4.83,1.92-9.5,1.92-14.14v-103.86c0-33.24-27.04-60.28-60.28-60.28h-138.48c-33.24,0-60.28,27.04-60.28,60.28v103.86c0,9.92,2.51,19.57,7.33,28.35-30.88,17.37-57.93,40.02-80.55,67.48-1.58-.2-3.25-.33-4.98-.33h-138.48c-33.24,0-60.28,27.04-60.28,60.28v103.86c0,33.24,27.04,60.28,60.28,60.28h81.68c2.72,18.01,7.13,35.61,13.15,52.54H106.01c-23.46-.65-42.34-19.94-42.34-43.56V288.7h848.8v240.07ZM193.8,219.46c33.24,0,60.28-27.04,60.28-60.28v-26.27h467.98v26.27c0,33.24,27.04,60.28,60.28,60.28s60.28-27.04,60.28-60.28v-26.27h26.27c24.03,0,43.58,19.55,43.58,43.58v60.89H63.67v-60.89c0-24.03,19.55-43.58,43.58-43.58h26.27v26.27c0,33.24,27.04,60.28,60.28,60.28ZM773.38,159.18v-86.55c0-4.94,4.02-8.96,8.96-8.96s8.96,4.02,8.96,8.96v86.55c0,4.94-4.02,8.96-8.96,8.96s-8.96-4.02-8.96-8.96ZM184.84,159.18v-86.55c0-4.94,4.02-8.96,8.96-8.96s8.96,4.02,8.96,8.96v86.55c0,4.94-4.02,8.96-8.96,8.96s-8.96-4.02-8.96-8.96Z"/><path class="cls-1" d="M141.87,565.66h138.48c33.24,0,60.28-27.04,60.28-60.28v-103.86c0-33.24-27.04-60.28-60.28-60.28h-138.48c-33.24,0-60.28,27.04-60.28,60.28v103.86c0,33.24,27.04,60.28,60.28,60.28ZM132.91,505.38v-103.86c0-4.94,4.02-8.96,8.96-8.96h138.48c4.94,0,8.96,4.02,8.96,8.96v103.86c0,4.94-4.02,8.96-8.96,8.96h-138.48c-4.94,0-8.96-4.02-8.96-8.96Z"/><path class="cls-1" d="M418.83,565.66h138.48c33.24,0,60.28-27.04,60.28-60.28v-103.86c0-33.24-27.04-60.28-60.28-60.28h-138.48c-33.24,0-60.28,27.04-60.28,60.28v103.86c0,33.24,27.04,60.28,60.28,60.28ZM409.87,505.38v-103.86c0-4.94,4.02-8.96,8.96-8.96h138.48c4.94,0,8.96,4.02,8.96,8.96v103.86c0,4.94-4.02,8.96-8.96,8.96h-138.48c-4.94,0-8.96-4.02-8.96-8.96Z"/><path class="cls-1" d="M141.87,825.31h138.48c33.24,0,60.28-27.04,60.28-60.28v-103.86c0-33.24-27.04-60.28-60.28-60.28h-138.48c-33.24,0-60.28,27.04-60.28,60.28v103.86c0,33.24,27.04,60.28,60.28,60.28ZM132.91,765.03v-103.86c0-4.94,4.02-8.96,8.96-8.96h138.48c4.94,0,8.96,4.02,8.96,8.96v103.86c0,4.94-4.02,8.96-8.96,8.96h-138.48c-4.94,0-8.96-4.02-8.96-8.96Z"/><path class="cls-1" d="M729.58,887.04c4.85,4.85,11.29,7.52,18.14,7.52,6.38,0,12.48-2.35,17.17-6.59l173.1-155.79c5.09-4.58,8.09-10.88,8.45-17.73.36-6.85-1.97-13.42-6.54-18.5-4.57-5.1-10.85-8.12-17.69-8.48-6.86-.36-13.45,1.96-18.56,6.57l-155.01,139.5-86.64-86.64c-10-10-26.28-10-36.29,0-4.85,4.85-7.52,11.29-7.52,18.14s2.67,13.29,7.52,18.14l103.86,103.86Z"/></svg>