<?xml version="1.0" encoding="UTF-8"?>
<svg id="Layer_1" xmlns="http://www.w3.org/2000/svg" viewBox="0 0 1080 1080">
    <defs>
        <style>.cls-1{fill:#000;}</style>
    </defs>
    <path class="cls-1"
        d="M460.2,15.5H71.09c-30.7,0-55.59,24.89-55.59,55.59v262.48c0,30.7,24.89,55.59,55.59,55.59h389.11c30.7,0,55.59-24.89,55.59-55.59V71.09c0-30.7-24.89-55.59-55.59-55.59ZM416.48,114.81v175.04H114.81V114.81h301.67Z" />
    <path class="cls-1"
        d="M460.2,437.58H71.09c-30.7,0-55.59,24.89-55.59,55.59v515.73c0,30.7,24.89,55.59,55.59,55.59h389.11c30.7,0,55.59-24.89,55.59-55.59V493.18c0-30.7-24.89-55.59-55.59-55.59ZM416.48,536.9v428.29H114.81v-428.29h301.67Z" />
    <path class="cls-1"
        d="M1008.91,690.83h-389.1c-30.7,0-55.59,24.89-55.59,55.59v262.48c0,30.7,24.89,55.59,55.59,55.59h389.11c30.7,0,55.59-24.89,55.59-55.59v-262.48c0-30.7-24.89-55.59-55.59-55.59ZM965.19,790.15v175.04h-301.67v-175.04h301.67Z" />
    <path class="cls-1"
        d="M1008.91,15.5h-389.11c-30.7,0-55.59,24.89-55.59,55.59v515.73c0,30.7,24.89,55.59,55.59,55.59h389.11c30.7,0,55.59-24.89,55.59-55.59V71.09c0-30.7-24.89-55.59-55.59-55.59ZM965.19,114.81v428.29h-301.67V114.81h301.67Z" />
</svg>