<?xml version="1.0" encoding="UTF-8"?>
<svg id="Layer_1" xmlns="http://www.w3.org/2000/svg" viewBox="0 0 1080 1080">
    <defs>
        <style>.cls-1{fill:#000;}</style>
    </defs>
    <path class="cls-1"
        d="M708.61,443.41c0-21.7-17.59-39.29-39.29-39.29h-404.64c-21.7,0-39.29,17.59-39.29,39.29s17.59,39.29,39.29,39.29h404.64c21.7,0,39.29-17.59,39.29-39.29Z" />
    <path class="cls-1"
        d="M264.69,561.27c-21.7,0-39.29,17.59-39.29,39.29s17.59,39.29,39.29,39.29h245.75c21.7,0,39.29-17.59,39.29-39.29s-17.59-39.29-39.29-39.29h-245.75Z" />
    <path class="cls-1"
        d="M259.87,709.72c-19.03,0-34.46,17.59-34.46,39.29s15.43,39.29,34.46,39.29h215.55c19.03,0,34.46-17.59,34.46-39.29s-15.43-39.29-34.46-39.29h-215.55Z" />
    <path class="cls-1"
        d="M514.15,938.4H225.63c-43.32,0-78.57-35.25-78.57-78.57V168.42c0-43.32,35.25-78.57,78.57-78.57h482.99c43.32,0,78.57,35.25,78.57,78.57v359.46c0,21.7,17.59,39.29,39.29,39.29s39.29-17.59,39.29-39.29V168.42c0-86.65-70.49-157.14-157.14-157.14H225.63c-86.65,0-157.14,70.49-157.14,157.14v691.42c0,86.65,70.49,157.14,157.14,157.14h288.53c21.7,0,39.29-17.59,39.29-39.29s-17.59-39.29-39.29-39.29Z" />
    <path class="cls-1"
        d="M669.33,246.99h-404.64c-21.7,0-39.29,17.59-39.29,39.29s17.59,39.29,39.29,39.29h404.64c21.7,0,39.29-17.59,39.29-39.29s-17.59-39.29-39.29-39.29Z" />
    <path class="cls-1"
        d="M779.43,604.61c-127.94,0-232.08,104.1-232.08,232.08,0,63.93,25.99,121.9,67.94,163.89.09.09.09.21.17.29.46.46,1.01.76,1.52,1.22,10.09,9.92,21.06,18.99,32.83,26.96,1.35.93,2.83,1.65,4.18,2.53,11.22,7.26,23,13.71,35.44,18.95,1.48.63,3,1.05,4.52,1.65,12.62,5.02,25.7,9.11,39.24,11.9.84.17,1.69.21,2.49.38,14.18,2.74,28.78,4.26,43.76,4.26s29.58-1.56,43.76-4.26c.84-.17,1.69-.21,2.49-.38,13.54-2.78,26.62-6.88,39.24-11.9,1.48-.59,3.04-1.01,4.52-1.65,12.45-5.23,24.22-11.69,35.44-18.95,1.39-.89,2.83-1.65,4.18-2.53,11.77-7.98,22.7-17.05,32.83-26.96.46-.46,1.05-.76,1.52-1.22.09-.09.09-.21.17-.29,41.94-42.03,67.94-99.96,67.94-163.89,0-127.98-104.14-232.08-232.08-232.08ZM933.28,947.03c-19.49-33.46-48.99-59.24-83.84-74.31,21.56-19.33,35.44-47.09,35.44-78.27,0-58.15-47.3-105.49-105.49-105.49s-105.49,47.34-105.49,105.49c0,31.18,13.84,58.95,35.44,78.27-34.85,15.06-64.35,40.85-83.84,74.31-22.45-31.18-35.99-69.12-35.99-110.38,0-104.73,85.15-189.88,189.88-189.88s189.88,85.19,189.88,189.88c.04,41.27-13.59,79.2-36,110.38Z" />
</svg>