<?xml version="1.0" encoding="UTF-8"?><svg id="Layer_1" xmlns="http://www.w3.org/2000/svg" viewBox="0 0 1080 1080"><defs><style>.cls-1{fill:#fff;}</style></defs><path class="cls-1" d="M810.32,1080.22c-34.8.19-68.34-13.03-93.66-36.9l-119.95-114.27c-69.85-63.92-75.16-172.18-11.89-242.63v.02c58.98-61.29,152.42-73.85,225.5-30.31,73.08-43.54,166.52-30.98,225.5,30.31,63.27,70.45,57.96,178.72-11.89,242.65l-119.92,114.25c-25.33,23.86-58.88,37.07-93.68,36.88ZM650.28,748.27c-29.28,34.38-25.47,85.91,8.55,115.61l119.92,114.27c17.89,16.31,45.26,16.31,63.15,0l119.9-114.27c34.02-29.71,37.83-81.25,8.55-115.64-16.62-17.42-39.53-27.46-63.61-27.87-24.18-.73-47.67,8.12-65.37,24.62-17.38,16.57-44.72,16.57-62.1,0-17.65-16.58-41.17-25.43-65.37-24.62-24.08.41-47,10.46-63.61,27.9h-.01ZM495.2,585.32c0-24.85-20.15-45-45-45h-135.06c-24.85,0-45,20.15-45,45s20.15,45,45,45h135.05c24.85,0,45.01-20.14,45.01-44.99h0ZM630.25,405.26c0-24.85-20.15-45-45-45h-270.11c-24.85,0-45,20.15-45,45s20.15,45,45,45h270.1c24.85,0,45.01-20.14,45.02-44.99h0s0-.01,0-.01ZM107.62,986.87l143.67-60.84c59.8,33.93,126.01,55.03,194.41,61.94,24.74,2.48,46.8-15.57,49.28-40.31,2.48-24.74-15.57-46.8-40.31-49.28-62.49-6.3-122.64-27.09-175.69-60.7-12.49-7.95-28.09-9.24-41.72-3.47l-73.18,30.99,24.05-72.62c4.82-14.54,1.91-30.53-7.71-42.44-140.77-173.88-113.93-428.95,59.94-569.72s428.95-113.93,569.72,59.94c58.4,72.13,90.25,162.12,90.24,254.93,0,24.86,20.15,45.02,45.02,45.02s45.02-20.15,45.02-45.02C990.55,221.81,768.99-.04,495.51-.22,222.03-.4.18,221.15,0,494.63c-.07,105.05,33.27,207.4,95.2,292.25l-47.87,144.37c-7.83,23.59,4.94,49.06,28.52,56.89,10.4,3.45,21.7,3,31.78-1.29h-.01Z"/></svg>