<?xml version="1.0" encoding="UTF-8"?><svg id="Layer_1" xmlns="http://www.w3.org/2000/svg" viewBox="0 0 1080 1080"><defs><style>.cls-1{fill:#fff;fill-rule:evenodd;}</style></defs><path class="cls-1" d="M540.06,0c123.78,0,224.12,100.35,224.11,224.13,0,72.33-34.91,140.21-93.74,182.29,180.82,53.12,311.54,210.33,330.79,397.8,1.58,16.61-10.6,31.35-27.21,32.93-.92.09-1.84.13-2.76.14v.09h-220.89l-50.86,46.28,30.85,149.05c4.36,21.32-9.39,42.14-30.71,46.5-9.35,1.91-19.07.37-27.36-4.34l-132.24-75.41-132.24,75.41c-18.92,10.74-42.97,4.11-53.71-14.82-4.7-8.29-6.24-18-4.34-27.33l30.85-149.05-50.86-46.28H108.87c-16.64.05-30.17-13.41-30.22-30.05,0-1.93.17-3.86.54-5.75,20.22-186.39,150.62-342.31,330.51-395.16-100.68-72.01-123.92-211.99-51.92-312.67C399.85,34.91,467.73,0,540.06,0h0ZM717.16,786.04l20.15-18.33-121.84-13.46c-10.82-.99-20.27-7.73-24.73-17.64l-50.67-112.19-50.51,111.85c-4.31,9.9-13.6,16.74-24.34,17.92l-122.39,13.52,91.07,82.88-.03.03c7.85,7.14,11.35,17.89,9.23,28.28l-24.99,120.75,106.6-60.78c9.29-5.52,20.83-5.62,30.23-.28l107.1,61.07-24.62-118.93c-2.94-10.91.46-22.54,8.81-30.14l70.92-64.56h0ZM816.1,776.96h120.41c-41.24-218.96-252.17-363.02-471.13-321.78-163.29,30.76-291.02,158.49-321.78,321.78h120.41c-13.74-16.93-11.16-41.79,5.77-55.53,5.87-4.76,12.98-7.74,20.49-8.58l151.22-16.71,62.61-138.64c8.96-19.85,32.31-28.69,52.17-19.73,8.76,3.95,15.78,10.97,19.73,19.73l62.62,138.65,151.21,16.71c21.67,2.42,37.27,21.95,34.84,43.62-.84,7.51-3.82,14.62-8.58,20.49h0ZM540.06,60.41c-90.41,0-163.7,73.29-163.7,163.7s73.29,163.7,163.7,163.7c90.41,0,163.7-73.29,163.7-163.7h0c0-90.41-73.29-163.7-163.69-163.7h-.01Z"/></svg>