<?xml version="1.0" encoding="UTF-8"?><svg id="Layer_1" xmlns="http://www.w3.org/2000/svg" viewBox="0 0 1080 1080"><defs><style>.cls-1{fill:#fff;}</style></defs><path class="cls-1" d="M489,958.77H186.05c-19.15,0-34.74-15.58-34.74-34.74V211.01c0-19.15,15.58-34.74,34.74-34.74h106.28v26.08h-61.09c-36.54,0-66.28,29.76-66.28,66.35v597.7c0,36.54,29.73,66.27,66.28,66.27h292.32c11.15,0,20.23-9.07,20.23-20.23s-9.07-20.23-20.23-20.23H231.24c-14.24,0-25.82-11.58-25.82-25.82V268.71c0-14.28,11.58-25.9,25.82-25.9h61.41c2.71,23.24,22.52,41.34,46.47,41.34h253.22c23.96,0,43.77-18.1,46.47-41.34h61.37c14.28,0,25.9,11.62,25.9,25.9v316.64c0,11.15,9.07,20.23,20.23,20.23s20.23-9.07,20.23-20.23v-316.64c0-36.59-29.77-66.35-66.35-66.35h-61.05v-26.08h106.32c19.15,0,34.74,15.58,34.74,34.74v409.83c0,11.15,9.07,20.23,20.23,20.23s20.23-9.07,20.23-20.23V211.01c0-41.46-33.73-75.19-75.19-75.19h-106.32v-2.92c0-25.8-20.99-46.79-46.79-46.79h-33.82c-.2,0-.49-.21-.62-.61-13.37-39.53-50.41-66.09-92.17-66.09s-78.75,26.54-92.15,66.05c-.15.45-.46.65-.64.65h-33.82c-25.8,0-46.79,20.99-46.79,46.79v2.92h-106.28c-41.46,0-75.19,33.73-75.19,75.19v713.02c0,41.46,33.73,75.19,75.19,75.19h302.95c11.15,0,20.23-9.07,20.23-20.23s-9.07-20.23-20.23-20.23ZM332.78,237.37v-104.47c0-3.49,2.84-6.33,6.33-6.33h33.82c17.6,0,33.26-11.3,38.95-28.12,7.82-23.07,29.46-38.57,53.84-38.57s46.03,15.51,53.84,38.61c5.69,16.8,21.34,28.09,38.95,28.09h33.82c3.49,0,6.33,2.84,6.33,6.33v104.47c0,3.49-2.84,6.33-6.33,6.33h-253.22c-3.49,0-6.33-2.84-6.33-6.33Z"/><path class="cls-1" d="M963.92,993.43l-185.37-357.13c-7.94-15.29-23.58-24.79-40.81-24.79h0c-17.22,0-32.85,9.5-40.8,24.79l-185.37,357.14c-7.46,14.38-6.89,31.21,1.51,45.05,8.41,13.84,23.1,22.1,39.3,22.1h370.73c16.19,0,30.88-8.26,39.28-22.08,8.41-13.84,8.98-30.69,1.52-45.08ZM927.85,1017.49c-.48.79-1.91,2.64-4.73,2.64h-370.73c-2.82,0-4.25-1.85-4.74-2.65-.48-.79-1.46-2.91-.17-5.41l185.37-357.13c1.4-2.7,3.9-3,4.91-3h0c1,0,3.49.29,4.9,2.99l185.37,357.12c1.3,2.51.32,4.63-.17,5.43Z"/><rect class="cls-1" x="719.25" y="745.13" width="37" height="163.17" rx="17.5" ry="17.5"/><path class="cls-1" d="M737.75,932.53c-14.3,0-25.93,11.63-25.93,25.93s11.63,25.93,25.93,25.93,25.93-11.63,25.93-25.93-11.63-25.93-25.93-25.93Z"/><path class="cls-1" d="M332.58,319.66h-40.06c-11.43,0-20.74,9.3-20.74,20.74v21.6h-21.6c-11.43,0-20.73,9.3-20.73,20.74v40.06c0,11.43,9.3,20.73,20.73,20.73h21.6v21.6c0,11.43,9.3,20.74,20.74,20.74h40.06c11.43,0,20.74-9.3,20.74-20.74v-21.6h21.6c11.43,0,20.73-9.3,20.73-20.73v-40.06c0-11.43-9.3-20.74-20.73-20.74h-21.6v-21.6c0-11.43-9.3-20.74-20.74-20.74ZM321.87,427.8v26.61h-18.62v-26.61c0-8.67-7.06-15.73-15.73-15.73h-26.6v-18.62h26.6c8.67,0,15.73-7.06,15.73-15.73v-26.61h18.62v26.61c0,8.67,7.06,15.73,15.73,15.73h26.6v18.62h-26.6c-8.67,0-15.73,7.06-15.73,15.73Z"/><path class="cls-1" d="M693.4,346.21h-227.68c-11.15,0-20.23,9.07-20.23,20.23s9.07,20.23,20.23,20.23h227.68c11.15,0,20.23-9.07,20.23-20.23s-9.07-20.23-20.23-20.23Z"/><path class="cls-1" d="M465.73,459.33h169.55c11.15,0,20.23-9.07,20.23-20.23s-9.07-20.23-20.23-20.23h-169.55c-11.15,0-20.23,9.07-20.23,20.23s9.07,20.23,20.23,20.23Z"/><path class="cls-1" d="M655.5,664.94c0-11.15-9.07-20.23-20.23-20.23H245.19c-11.15,0-20.23,9.07-20.23,20.23s9.07,20.23,20.23,20.23h390.09c11.15,0,20.23-9.07,20.23-20.23Z"/><path class="cls-1" d="M245.19,587.77h183.14c11.15,0,20.23-9.07,20.23-20.23s-9.07-20.23-20.23-20.23h-183.14c-11.15,0-20.23,9.07-20.23,20.23s9.07,20.23,20.23,20.23Z"/><path class="cls-1" d="M713.63,567.54c0-11.15-9.07-20.23-20.23-20.23h-211.36c-11.15,0-20.23,9.07-20.23,20.23s9.07,20.23,20.23,20.23h211.36c11.15,0,20.23-9.07,20.23-20.23Z"/><path class="cls-1" d="M245.19,742.12c-11.15,0-20.23,9.07-20.23,20.23s9.07,20.23,20.23,20.23h78.34c11.15,0,20.23-9.07,20.23-20.23s-9.07-20.23-20.23-20.23h-78.34Z"/><path class="cls-1" d="M385.56,742.13c-10.6,0-19.22,9.07-19.22,20.23s8.62,20.23,19.22,20.23h216.96c10.6,0,19.22-9.07,19.22-20.23s-8.62-20.23-19.22-20.23h-216.96Z"/><path class="cls-1" d="M459,958.77H186.05c-19.15,0-34.74-15.58-34.74-34.74V211.01c0-19.15,15.58-34.74,34.74-34.74h106.28v26.08h-61.09c-36.54,0-66.28,29.76-66.28,66.35v597.7c0,36.54,29.73,66.27,66.28,66.27h262.32c11.15,0,20.23-9.07,20.23-20.23s-9.07-20.23-20.23-20.23H231.24c-14.24,0-25.82-11.58-25.82-25.82V268.71c0-14.28,11.58-25.9,25.82-25.9h61.41c2.71,23.24,22.52,41.34,46.47,41.34h253.22c23.96,0,43.77-18.1,46.47-41.34h61.37c14.28,0,25.9,11.62,25.9,25.9v276.64c0,11.15,9.07,20.23,20.23,20.23s20.23-9.07,20.23-20.23v-276.64c0-36.59-29.77-66.35-66.35-66.35h-61.05v-26.08h106.32c19.15,0,34.74,15.58,34.74,34.74v369.83c0,11.15,9.07,20.23,20.23,20.23s20.23-9.07,20.23-20.23V211.01c0-41.46-33.73-75.19-75.19-75.19h-106.32v-2.92c0-25.8-20.99-46.79-46.79-46.79h-33.82c-.2,0-.49-.21-.62-.61-13.37-39.53-50.41-66.09-92.17-66.09s-78.75,26.54-92.15,66.05c-.15.45-.46.65-.64.65h-33.82c-25.8,0-46.79,20.99-46.79,46.79v2.92h-106.28c-41.46,0-75.19,33.73-75.19,75.19v713.02c0,41.46,33.73,75.19,75.19,75.19h272.95c11.15,0,20.23-9.07,20.23-20.23s-9.07-20.23-20.23-20.23ZM332.78,237.37v-104.47c0-3.49,2.84-6.33,6.33-6.33h33.82c17.6,0,33.26-11.3,38.95-28.12,7.82-23.07,29.46-38.57,53.84-38.57s46.03,15.51,53.84,38.61c5.69,16.8,21.34,28.09,38.95,28.09h33.82c3.49,0,6.33,2.84,6.33,6.33v104.47c0,3.49-2.84,6.33-6.33,6.33h-253.22c-3.49,0-6.33-2.84-6.33-6.33Z"/><path class="cls-1" d="M963.92,993.43l-185.37-357.13c-7.94-15.29-23.58-24.79-40.81-24.79h0c-17.22,0-32.85,9.5-40.8,24.79l-185.37,357.14c-7.46,14.38-6.89,31.21,1.51,45.05,8.41,13.84,23.1,22.1,39.3,22.1h370.73c16.19,0,30.88-8.26,39.28-22.08,8.41-13.84,8.98-30.69,1.52-45.08ZM927.85,1017.49c-.48.79-1.91,2.64-4.73,2.64h-370.73c-2.82,0-4.25-1.85-4.74-2.65-.48-.79-1.46-2.91-.17-5.41l185.37-357.13c1.4-2.7,3.9-3,4.91-3h0c1,0,3.49.29,4.9,2.99l185.37,357.12c1.3,2.51.32,4.63-.17,5.43Z"/><rect class="cls-1" x="719.25" y="745.13" width="37" height="163.17" rx="17.5" ry="17.5"/><path class="cls-1" d="M737.75,932.53c-14.3,0-25.93,11.63-25.93,25.93s11.63,25.93,25.93,25.93,25.93-11.63,25.93-25.93-11.63-25.93-25.93-25.93Z"/><path class="cls-1" d="M332.58,319.66h-40.06c-11.43,0-20.74,9.3-20.74,20.74v21.6h-21.6c-11.43,0-20.73,9.3-20.73,20.74v40.06c0,11.43,9.3,20.73,20.73,20.73h21.6v21.6c0,11.43,9.3,20.74,20.74,20.74h40.06c11.43,0,20.74-9.3,20.74-20.74v-21.6h21.6c11.43,0,20.73-9.3,20.73-20.73v-40.06c0-11.43-9.3-20.74-20.73-20.74h-21.6v-21.6c0-11.43-9.3-20.74-20.74-20.74ZM321.87,427.8v26.61h-18.62v-26.61c0-8.67-7.06-15.73-15.73-15.73h-26.6v-18.62h26.6c8.67,0,15.73-7.06,15.73-15.73v-26.61h18.62v26.61c0,8.67,7.06,15.73,15.73,15.73h26.6v18.62h-26.6c-8.67,0-15.73,7.06-15.73,15.73Z"/><path class="cls-1" d="M693.4,346.21h-227.68c-11.15,0-20.23,9.07-20.23,20.23s9.07,20.23,20.23,20.23h227.68c11.15,0,20.23-9.07,20.23-20.23s-9.07-20.23-20.23-20.23Z"/><path class="cls-1" d="M465.73,459.33h169.55c11.15,0,20.23-9.07,20.23-20.23s-9.07-20.23-20.23-20.23h-169.55c-11.15,0-20.23,9.07-20.23,20.23s9.07,20.23,20.23,20.23Z"/><path class="cls-1" d="M655.5,664.94c0-11.15-9.07-20.23-20.23-20.23H245.19c-11.15,0-20.23,9.07-20.23,20.23s9.07,20.23,20.23,20.23h390.09c11.15,0,20.23-9.07,20.23-20.23Z"/><path class="cls-1" d="M245.19,587.77h183.14c11.15,0,20.23-9.07,20.23-20.23s-9.07-20.23-20.23-20.23h-183.14c-11.15,0-20.23,9.07-20.23,20.23s9.07,20.23,20.23,20.23Z"/><path class="cls-1" d="M713.63,567.54c0-11.15-9.07-20.23-20.23-20.23h-211.36c-11.15,0-20.23,9.07-20.23,20.23s9.07,20.23,20.23,20.23h211.36c11.15,0,20.23-9.07,20.23-20.23Z"/><path class="cls-1" d="M245.19,742.12c-11.15,0-20.23,9.07-20.23,20.23s9.07,20.23,20.23,20.23h78.34c11.15,0,20.23-9.07,20.23-20.23s-9.07-20.23-20.23-20.23h-78.34Z"/><path class="cls-1" d="M385.56,742.13c-10.6,0-19.22,9.07-19.22,20.23s8.62,20.23,19.22,20.23h216.96c10.6,0,19.22-9.07,19.22-20.23s-8.62-20.23-19.22-20.23h-216.96Z"/></svg>