<?xml version="1.0" encoding="UTF-8"?>
<svg id="Layer_1" xmlns="http://www.w3.org/2000/svg" viewBox="0 0 1080 1080">
    <defs>
        <style>.cls-1{fill:#000;fill-rule:evenodd;}</style>
    </defs>
    <path class="cls-1"
        d="M767.09,619.9l-77.03-31.51v-96.79l77.03-31.5v159.8ZM611.15,669.8h-298.23v-259.6h298.23v259.6ZM828.54,368.57c-10.92-7.32-24.75-8.73-36.93-3.75l-101.55,41.55v-2.31c0-40.12-31.2-72.77-69.54-72.77h-317c-38.34,0-69.51,32.65-69.51,72.77v271.9c0,40.1,31.17,72.75,69.51,72.75h317c38.34,0,69.54-32.65,69.54-72.75v-2.31l101.55,41.53c4.81,1.97,9.86,2.96,14.93,2.96,7.72,0,15.39-2.28,21.99-6.71,10.92-7.32,17.46-19.59,17.46-32.74v-277.36c0-13.14-6.54-25.42-17.46-32.76h0ZM540,993.71c250.17,0,453.73-203.54,453.73-453.71S790.17,86.29,540,86.29,86.29,289.83,86.29,540c0,91.05,26.86,178.85,77.67,253.94,7.26,10.71,8.81,24.33,4.09,36.43l-51.94,133.52,133.51-51.94c4.64-1.81,9.48-2.7,14.3-2.7,7.8,0,15.5,2.29,22.13,6.81,75.07,50.79,162.88,77.65,253.95,77.65ZM540,7.38C246.31,7.38,7.38,246.31,7.38,540c0,99.85,27.51,196.41,79.81,280.59L10.05,1018.87c-5.66,14.56-2.17,31.14,8.87,42.22,7.54,7.52,17.63,11.54,27.92,11.54,4.81,0,9.63-.88,14.3-2.7l198.3-77.14c84.17,52.33,180.73,79.84,280.57,79.84,293.67,0,532.63-238.93,532.63-532.62,0-293.68-238.96-532.61-532.63-532.61h0Z" />
</svg>