<?xml version="1.0" encoding="UTF-8"?>
<svg id="Layer_1" xmlns="http://www.w3.org/2000/svg" viewBox="0 0 1080 1080">
    <defs>
        <style>.cls-1{fill:#fff;}</style>
    </defs>
    <path class="cls-1"
        d="M1048.67,187.25l-.11-.09c-12.39-10.74-28.07-15.28-44.17-12.78L68.05,303.92c-15.18.69-29.44,7.01-40.39,17.96-11.63,11.63-18.03,26.97-18.03,43.2v478.78c0,34.42,27.47,62.43,61.23,62.43h937.07c16.81,0,32.53-6.46,44.25-18.18,11.72-11.72,18.18-27.44,18.18-44.25V235.43c0-18.45-7.91-36.01-21.69-48.18ZM1018.46,304.74c-3.43-.57-6.94-.89-10.53-.89H448.9l563.04-77.9.67-.11c.4-.07.89.39.9.4l.63.63.69.55c2.18,1.74,3.64,4.96,3.64,8.01v69.31ZM61.54,816.01c3.2,1.44,6.76,2.24,10.53,2.24h37.99c14.97,0,26.25-11.29,26.25-26.25s-11.53-25.65-26.25-25.65h-37.99c-3.78,0-7.33.78-10.53,2.19v-327.6c3.2,1.44,6.76,2.24,10.53,2.24h37.99c14.97,0,26.25-11.29,26.25-26.25s-11.53-25.65-26.25-25.65h-37.99c-3.78,0-7.33.78-10.53,2.19v-28.4c0-4.86,3.96-8.99,8.76-9.3,1,.05,2,.04,3-.03h934.64c5.61,0,10.53,4.36,10.53,9.33v28.55c-3.36-1.5-7.13-2.34-11.14-2.34h-37.99c-14.38,0-25.65,11.27-25.65,25.65s11.27,26.25,25.65,26.25h37.99c4.03,0,7.79-.82,11.14-2.31v327.82c-3.36-1.5-7.13-2.34-11.14-2.34h-37.99c-14.38,0-25.65,11.27-25.65,25.65s11.27,26.25,25.65,26.25h37.99c4.03,0,7.79-.82,11.14-2.31v27.92c0,5.61-4.92,10.53-10.53,10.53H70.86c-4.97,0-9.33-4.92-9.33-10.53v-27.85Z" />
    <path class="cls-1"
        d="M156.17,805.27c0,14.72,11.27,26.25,25.65,26.25h228.54c14.38,0,25.65-11.53,25.65-26.25,0-.53-.02-1.06-.05-1.59,30.96,16.23,66.15,25.43,103.45,25.43s72.91-9.21,104.05-25.45c-.03.53-.05,1.07-.05,1.61,0,14.72,11.27,26.25,25.65,26.25h228.54c14.47,0,26.25-11.78,26.25-26.25,0-29.57,24.98-54.55,54.55-54.55,14.97,0,26.25-11.29,26.25-26.25v-239.39c0-14.38-11.53-25.65-26.25-25.65-30.08,0-54.55-25.01-54.55-55.76,0-14.38-11.53-25.65-26.25-25.65h-228.54c-14.38,0-25.65,11.27-25.65,25.65,0,.73.04,1.45.09,2.17-31.15-16.22-66.56-25.4-104.09-25.4s-72.04,9.05-102.86,25.05c.04-.6.07-1.2.07-1.81,0-14.38-11.53-25.65-26.25-25.65h-228.54c-14.38,0-25.65,11.27-25.65,25.65,0,29.7-25.77,55.76-55.15,55.76-14.38,0-25.65,11.27-25.65,25.65v239.39c0,14.72,11.27,26.25,25.65,26.25,30.41,0,55.15,24.47,55.15,54.55ZM539.4,777.21c-94.92,0-172.14-77.49-172.14-172.74s77.22-172.14,172.14-172.14,172.74,77.22,172.74,172.14-77.49,172.74-172.74,172.74ZM875.09,429.92c9.31,38.02,39.46,68.36,77.65,78.09v193.95c-38.2,9.31-68.35,39.46-77.66,77.66h-194.82c51.41-41.21,84.38-104.41,84.38-175.15s-32.9-133.45-84.22-174.55h194.66ZM315.36,604.47c0,70.75,32.79,133.94,83.93,175.15h-194.53c-9.69-38.13-39.79-68.26-77.5-77.62v-194.07c18.67-4.86,35.7-14.68,48.98-28.43,13.82-13.35,23.67-30.6,28.49-49.59h194.38c-51.04,41.1-83.76,104.07-83.76,174.55Z" />
    <path class="cls-1"
        d="M142.25,604.47c0,30.13,24.24,54.64,54.03,54.64s55.24-24.51,55.24-54.64-24.78-54.03-55.24-54.03-54.03,24.24-54.03,54.03ZM176.15,604.47c0-11.29,8.84-20.14,20.14-20.14s21.34,9.03,21.34,20.14-9.57,20.74-21.34,20.74c-11.1,0-20.14-9.3-20.14-20.74Z" />
    <path class="cls-1"
        d="M882.51,659.11c14.7,0,28.45-5.65,38.72-15.92s15.92-24.02,15.92-38.72c0-29.79-24.51-54.03-54.64-54.03s-54.03,24.24-54.03,54.03,24.24,54.64,54.03,54.64ZM862.37,604.47c0-11.29,8.84-20.14,20.13-20.14s20.74,8.84,20.74,20.14-8.92,20.74-20.74,20.74c-11.1,0-20.13-9.3-20.13-20.74Z" />
    <path class="cls-1"
        d="M579.31,571.39h26.03l-7.16,27.47h-19.14c-2,12.07-6.62,21.92-13.86,29.55-7.25,7.64-17.55,13.49-30.92,17.58l52.85,64.83v1.95h-48.94l-59.75-71.33-.13-25.13h30.72c12.41-.26,20.44-6.07,24.08-17.44h-58.58l7.16-27.47h50.38c-3.82-8.24-11.28-12.54-22.39-12.89h-35.02l8.33-35.28h122.49l-7.16,27.47h-26.43c3.82,6.12,6.29,13.02,7.42,20.7h0Z" />
</svg>