<?xml version="1.0" encoding="UTF-8"?><svg id="Layer_1" xmlns="http://www.w3.org/2000/svg" viewBox="0 0 1080 1080"><defs><style>.cls-1{fill:#fff;}</style></defs><g id="_522"><path class="cls-1" d="M852.85,1080c86.62,0,157.1-70.49,157.1-157.15V157.1C1009.95,70.49,939.46,0,852.85,0H227.15C140.54,0,70.05,70.49,70.05,157.1v765.75c0,86.66,70.49,157.15,157.1,157.15h625.69ZM160.05,922.85V157.1c0-37,30.1-67.1,67.1-67.1h625.69c37,0,67.1,30.1,67.1,67.1v765.75c0,37.05-30.1,67.15-67.1,67.15H227.15c-37,0-67.1-30.1-67.1-67.15Z"/><path class="cls-1" d="M537.8,797.61h-198.72c-24.87,0-45,20.13-45,45s20.13,45,45,45h198.72c24.87,0,45-20.13,45-45s-20.13-45-45-45Z"/><path class="cls-1" d="M740.92,582.63h-401.84c-24.87,0-45,20.13-45,45s20.13,45,45,45h401.84c24.87,0,45-20.13,45-45s-20.13-45-45-45Z"/><path class="cls-1" d="M345.32,465.03l113.2-118.12,140.1,89.3c18.41,11.78,42.93,8.48,57.66-7.91l144.36-160.88c16.61-18.5,15.07-46.93-3.43-63.54-18.46-16.61-46.89-15.03-63.54,3.43l-118.87,132.5-139.04-88.64c-18.02-11.38-41.75-8.66-56.65,6.81l-138.74,144.76c-17.23,17.97-16.61,46.45,1.32,63.63,17.88,17.16,46.35,16.65,63.63-1.32Z"/></g></svg>