<?xml version="1.0" encoding="UTF-8"?><svg id="Layer_1" xmlns="http://www.w3.org/2000/svg" viewBox="0 0 1080 1080"><defs><style>.cls-1{fill:#fff;}</style></defs><path class="cls-1" d="M476.8,58.14C213.96,58.14,0,272.01,0,534.98c0,131.34,53.4,250.45,139.55,336.72.2.16.2.41.37.57.93.98,2.07,1.58,3.13,2.52,20.68,20.4,43.24,39.01,67.42,55.43,2.8,1.87,5.81,3.37,8.57,5.2,23.08,14.87,47.26,28.16,72.82,38.89,3.05,1.3,6.18,2.19,9.31,3.41,25.93,10.32,52.79,18.69,80.63,24.42,1.71.37,3.45.45,5.12.77,29.1,5.65,59.13,8.78,89.89,8.78s60.75-3.21,89.89-8.78c1.75-.32,3.49-.41,5.12-.77,21.54-4.43,42.51-10.44,62.87-17.76-8.41-27.27-5.16-56.77,9.67-82.33l111.59-192.66c-36.78-43.56-83.1-77.82-135.32-100.38,44.3-39.74,72.82-96.76,72.82-160.84,0-119.43-97.17-216.72-216.72-216.72s-216.76,97.29-216.76,216.72c0,64.09,28.45,121.14,72.82,160.84-71.6,30.93-132.19,83.92-172.22,152.64-46.12-64.04-73.96-141.99-73.96-226.76,0-215.18,174.95-390.12,390.12-390.12s390.12,175.03,390.12,390.12c.04,26.17-2.64,51.69-7.68,76.36,4.67-.61,9.43-.93,14.22-.93,26.25,0,50.59,9.47,69.29,26.25,7.19-32.71,10.93-66.73,10.93-101.59,0-262.97-213.96-476.84-476.8-476.84Z"/><path class="cls-1" d="M1070.78,920.41l-138.92-239.83c-12.23-21.1-34.09-33.7-58.48-33.7s-46.24,12.6-58.47,33.7l-138.92,239.82c-12.27,21.15-12.29,46.43-.08,67.61,12.21,21.19,34.1,33.84,58.55,33.84h277.84c24.46,0,46.34-12.65,58.54-33.84,12.22-21.18,12.2-46.46-.07-67.62ZM1012.31,963.52h-277.84c-4.42,0-6.8-2.52-8.02-4.63-1.21-2.11-2.2-5.42.01-9.24l138.92-239.83c2.21-3.81,5.57-4.61,8-4.61s5.8.8,8,4.61l138.92,239.83c2.21,3.81,1.23,7.12,0,9.23-1.21,2.11-3.59,4.63-8.01,4.63Z"/><path class="cls-1" d="M873.39,756.56c-10.49,0-19.01,8.51-19.01,19.01v81c0,10.5,8.51,19.01,19.01,19.01s19.01-8.51,19.01-19.01v-81c0-10.5-8.51-19.01-19.01-19.01Z"/><path class="cls-1" d="M873.39,905.06c-10.49,0-19.01,8.51-19.01,19.01v13.5c0,10.5,8.51,19.01,19.01,19.01s19.01-8.51,19.01-19.01v-13.5c0-10.5-8.51-19.01-19.01-19.01Z"/></svg>