<?xml version="1.0" encoding="UTF-8"?>
<svg id="Layer_1" xmlns="http://www.w3.org/2000/svg" viewBox="0 0 1080 1080">
    <defs>
        <style>.cls-1{fill:#000;}</style>
    </defs>
    <path class="cls-1"
        d="M987.15,415.99l-68.7-8.73c-4.93-14.09-10.66-27.91-17.09-41.28l42.42-54.62c24.37-31.44,21.59-75.69-6.44-102.99l-65.48-65.48c-27.38-28.13-71.74-31.01-103.27-6.65l-54.58,42.42c-13.39-6.42-27.22-12.14-41.31-17.09l-8.73-68.51c-4.71-39.11-37.93-68.59-77.3-68.59h-93.34c-39.37,0-72.59,29.43-77.3,68.47l-8.73,68.66c-14.09,4.95-27.92,10.67-41.3,17.08l-54.6-42.47c-31.45-24.37-75.7-21.59-103,6.45l-65.47,65.47c-28.2,27.44-31.07,71.83-6.66,103.3l42.38,54.58c-6.41,13.37-12.13,27.19-17.08,41.27l-68.51,8.73c-39.11,4.71-68.59,37.93-68.59,77.3v93.34c0,39.33,29.44,72.6,68.42,77.38l68.7,8.73c4.94,14.09,10.66,27.91,17.09,41.28l-42.42,54.62c-24.38,31.45-21.59,75.71,6.46,103l65.48,65.48c27.42,28.11,71.77,30.96,103.25,6.59l54.58-42.42c13.37,6.41,27.18,12.13,41.26,17.08l8.73,68.51c4.71,39.11,37.93,68.59,77.3,68.59h93.34c39.36,0,72.61-29.45,77.34-68.42l8.73-68.7c14.08-4.93,27.91-10.66,41.28-17.09l54.6,42.4c31.4,24.44,75.67,21.67,103.02-6.43l65.47-65.47c28.18-27.43,31.05-71.8,6.65-103.26l-42.42-54.58c6.41-13.37,12.13-27.18,17.08-41.26l68.51-8.73c39.11-4.71,68.59-37.93,68.59-77.3v-93.34c0-39.35-29.43-72.61-68.38-77.34ZM855.91,629.6c-7.16,24.9-17.02,48.67-29.29,70.63-7.14,12.76-5.95,28.46,3.04,40l56.64,72.88c1.73,2.24,1.66,5.14-.16,6.92l-66.2,66.2-.16.16c-1.63,1.67-4.5,1.66-6.67-.02l-72.87-56.63c-11.53-9.03-27.25-10.24-40.04-3.08-21.98,12.28-45.74,22.14-70.63,29.3-13.99,4.01-24.2,15.92-26.02,30.32l-11.71,91.84-.02.15c-.29,2.45-2.7,4.61-5.15,4.61h-93.34c-2.5,0-4.88-2.22-5.19-4.84l-11.68-91.77c-1.82-14.42-12.04-26.33-26.01-30.33-24.9-7.16-48.67-17.02-70.71-29.34-5.4-2.98-11.5-4.56-17.66-4.56-7.97,0-15.62,2.56-22.11,7.42l-73.1,56.81c-2.31,1.75-5.15,1.7-6.9-.12l-66.23-66.23-.19-.19c-1.61-1.56-1.57-4.45.1-6.59l56.62-72.86c9.04-11.53,10.25-27.25,3.09-40.05-12.28-21.97-22.14-45.74-29.3-70.63-4.01-13.99-15.91-24.2-30.32-26.02l-91.84-11.71-.15-.02c-2.45-.29-4.61-2.7-4.61-5.15v-93.34c0-2.5,2.22-4.88,4.84-5.19l91.77-11.68c14.42-1.82,26.33-12.04,30.33-26.01,7.2-25.05,17.06-48.81,29.3-70.63,7.14-12.76,5.95-28.46-3.04-40l-56.64-72.88c-1.73-2.24-1.66-5.14.16-6.92l66.2-66.24.15-.16c1.6-1.65,4.45-1.63,6.62.06l73,56.73c11.64,8.93,27.35,10.07,39.96,2.94,21.94-12.27,45.7-22.11,70.69-29.28,13.95-4.07,24.14-15.99,25.95-30.34l11.71-91.84.02-.15c.29-2.45,2.7-4.61,5.15-4.61h93.34c2.51,0,4.91,2.26,5.25,5l11.67,91.66c1.82,14.42,12.04,26.33,26,30.33,25.13,7.24,48.89,17.1,70.64,29.3,12.73,7.13,28.44,5.95,40.04-3.04l72.92-56.67c2.22-1.72,5.09-1.67,6.82.13l66.26,66.26.19.19c1.61,1.56,1.57,4.45-.09,6.59l-56.62,72.86c-9.05,11.53-10.25,27.25-3.09,40.05,12.28,21.98,22.14,45.74,29.3,70.63,4.01,13.99,15.92,24.21,30.32,26.02l91.84,11.71.15.02c2.45.29,4.61,2.7,4.61,5.15v93.34c0,2.51-2.24,4.92-4.96,5.25l-91.66,11.67c-14.42,1.82-26.33,12.04-30.33,26.01Z" />
    <path class="cls-1"
        d="M540,316.16c-123.43,0-223.84,100.42-223.84,223.84s100.42,223.84,223.84,223.84,223.84-100.42,223.84-223.84-100.42-223.84-223.84-223.84ZM540,691.18c-83.36,0-151.18-67.82-151.18-151.18s67.82-151.18,151.18-151.18,151.18,67.82,151.18,151.18-67.82,151.18-151.18,151.18Z" />
</svg>