<?xml version="1.0" encoding="UTF-8"?>
<svg id="Layer_1" xmlns="http://www.w3.org/2000/svg" viewBox="0 0 1080 1080">
    <defs>
        <style>.cls-1{fill:#000;}</style>
    </defs>
    <path class="cls-1"
        d="M515.82,927.86H104.23v-66.86c0-32.7,22.66-64.7,67.38-95.13,78.75-53.75,207.39-85.85,344.12-85.85,27.37,0,49.64-22.27,49.64-49.64s-22.27-49.64-49.64-49.64c-79.68,0-156.03,9.47-226.93,28.16-67.51,17.79-127.39,43.7-173.18,74.91-71.37,48.67-110.67,111.58-110.67,177.14v70.43c0,25.2,10.22,49.88,28.06,67.72,18.14,18.08,42.17,28.04,67.69,28.04h415.06c27.35-.07,49.61-22.35,49.61-49.69,0-13.26-5.18-25.73-14.59-35.11-9.36-9.34-21.77-14.48-34.97-14.48Z" />
    <path class="cls-1"
        d="M515.73,565.37c154.51,0,280.21-125.7,280.21-280.21S670.24,4.95,515.73,4.95,235.52,130.65,235.52,285.16s125.7,280.21,280.21,280.21ZM334.8,285.16c0-99.76,81.16-180.93,180.93-180.93s180.93,81.16,180.93,180.93-81.16,180.93-180.93,180.93-180.93-81.16-180.93-180.93Z" />
    <path class="cls-1"
        d="M891.92,770.57h-48.54v-48.54c0-20.1-16.31-36.41-36.41-36.41s-36.41,16.31-36.41,36.41v48.54h-48.54c-20.1,0-36.41,16.31-36.41,36.41s16.31,36.41,36.41,36.41h48.54v48.54c0,20.1,16.31,36.41,36.41,36.41s36.41-16.31,36.41-36.41v-48.54h48.54c20.1,0,36.41-16.31,36.41-36.41s-16.31-36.41-36.41-36.41Z" />
    <path class="cls-1"
        d="M806.97,538.9c-147.82,0-268.07,120.26-268.07,268.07s120.26,268.07,268.07,268.07,268.07-120.26,268.07-268.07-120.26-268.07-268.07-268.07ZM975.77,806.97c0,93.07-75.72,168.79-168.79,168.79s-168.79-75.72-168.79-168.79,75.72-168.79,168.79-168.79,168.79,75.72,168.79,168.79Z" />
</svg>