<?xml version="1.0" encoding="UTF-8"?><svg id="Layer_1" xmlns="http://www.w3.org/2000/svg" viewBox="0 0 1078.13 1078.13"><defs><style>.cls-1{fill:#fff;}</style></defs><g id="_65_id_card"><path class="cls-1" d="M577.57,154.02c0,21.27-17.24,38.5-38.5,38.5s-38.5-17.24-38.5-38.5,17.24-38.5,38.5-38.5,38.5,17.24,38.5,38.5ZM1078.13,353.86v601.44c0,67.84-54.99,122.83-122.83,122.83H122.83c-67.84,0-122.83-54.99-122.83-122.83h0V353.86c0-67.84,54.99-122.83,122.83-122.83h262.22v-77.01C385.05,68.96,454,0,539.06,0s154.02,68.96,154.02,154.02v77.01h262.22c67.84,0,122.83,54.99,122.83,122.83h0ZM462.05,231.03h154.02v-77.01c0-42.53-34.48-77.01-77.01-77.01s-77.01,34.48-77.01,77.01v77.01ZM1001.12,353.86c0-25.31-20.51-45.82-45.82-45.82H122.83c-25.31,0-45.82,20.51-45.82,45.82v601.44c0,25.31,20.51,45.82,45.82,45.82h832.47c25.31,0,45.82-20.51,45.82-45.82h0V353.86ZM616.07,847.1v38.5c0,21.27-17.24,38.5-38.5,38.5H192.52c-21.27,0-38.5-17.24-38.5-38.5v-38.5c.11-84.17,45.99-161.61,119.75-202.15-58.81-61.46-56.66-158.95,4.79-217.76,61.46-58.81,158.95-56.66,217.76,4.79,56.99,59.55,56.99,153.41,0,212.97,73.76,40.54,119.64,117.98,119.75,202.15ZM385.05,616.07c42.53,0,77.01-34.48,77.01-77.01s-34.48-77.01-77.01-77.01-77.01,34.48-77.01,77.01,34.48,77.01,77.01,77.01ZM539.06,847.1c0-85.06-68.96-154.02-154.02-154.02s-154.02,68.96-154.02,154.02h308.04ZM885.6,693.08h-192.52c-21.27,0-38.5,17.24-38.5,38.5s17.24,38.5,38.5,38.5h192.52c21.27,0,38.5-17.24,38.5-38.5s-17.24-38.5-38.5-38.5ZM885.6,847.1h-192.52c-21.27,0-38.5,17.24-38.5,38.5s17.24,38.5,38.5,38.5h192.52c21.27,0,38.5-17.24,38.5-38.5s-17.24-38.5-38.5-38.5ZM924.11,423.55v154.02c0,21.27-17.24,38.5-38.5,38.5h-192.52c-21.27,0-38.5-17.24-38.5-38.5v-154.02c0-21.27,17.24-38.5,38.5-38.5h192.52c21.27,0,38.5,17.24,38.5,38.5ZM847.1,462.05h-115.51v77.01h115.51v-77.01Z"/></g></svg>