<?xml version="1.0" encoding="UTF-8"?>
<svg id="Layer_1" xmlns="http://www.w3.org/2000/svg" viewBox="0 0 1080 1080">
    <defs>
        <style>.cls-1{fill:#fff;}</style>
    </defs>
    <path class="cls-1"
        d="M1039.29,337.29c-27.11-66.86-66.93-126.82-118.34-178.24s-111.38-91.23-178.24-118.34C678.16,14.53,609.95,1.26,540,1.26s-138.15,13.27-202.71,39.45c-66.86,27.11-126.82,66.93-178.24,118.34-51.42,51.42-91.23,111.39-118.34,178.24C14.53,401.85,1.26,470.05,1.26,540.01s13.27,138.16,39.45,202.71c27.11,66.86,66.93,126.82,118.34,178.23,51.42,51.42,111.38,91.23,178.24,118.34,64.56,26.18,132.76,39.45,202.71,39.45s138.16-13.27,202.71-39.45c66.86-27.11,126.83-66.93,178.24-118.34s91.23-111.38,118.34-178.24c26.18-64.55,39.45-132.76,39.45-202.71s-13.27-138.15-39.45-202.71ZM864.38,864.38c-178.86,178.86-469.9,178.87-648.77,0-86.64-86.63-134.36-201.83-134.36-324.37s47.72-237.74,134.36-324.39c178.87-178.86,469.9-178.86,648.76,0,178.86,178.86,178.86,469.9,0,648.76Z" />
    <path class="cls-1"
        d="M653.09,288.19c-7.74-7.74-20.29-7.74-28.02,0-3.71,3.72-5.8,8.75-5.8,14.01v59.45h-178.35c-10.94,0-19.82,8.87-19.82,19.82s8.87,19.82,19.82,19.82h198.16c10.94,0,19.82-8.87,19.82-19.82v-31.43l110.69,110.69-110.69,110.69v-31.43c0-10.94-8.87-19.82-19.82-19.82h-178.35v-59.45c0-10.94-8.88-19.81-19.82-19.81-5.25,0-10.29,2.09-14.01,5.8l-158.53,158.53c-7.74,7.74-7.74,20.28,0,28.02l158.53,158.53c3.72,3.72,8.75,5.81,14.01,5.81,2.6,0,5.18-.51,7.59-1.51,7.4-3.07,12.23-10.29,12.23-18.31v-59.45h178.35c10.94,0,19.82-8.87,19.82-19.82s-8.87-19.82-19.82-19.82h-198.16c-10.94,0-19.82,8.87-19.82,19.82v31.43l-110.69-110.69,110.69-110.69v31.43c0,10.94,8.87,19.82,19.82,19.82h178.35v59.45c0,10.94,8.88,19.81,19.82,19.81,5.25,0,10.29-2.09,14.01-5.8l158.53-158.53c7.74-7.74,7.74-20.28,0-28.02l-158.53-158.53Z" />
</svg>